P3
#
3 2 255
54
54
54
18
18
18
182
182
182
73
73
73
255
255
255
0
0
0

