P3
#
3 2 255
54
54
54
237
237
237
182
182
182
255
255
255
18
18
18
0
0
0

