P3
#
3 2 255
100
89
69
255
255
206
196
175
136
255
255
239
48
43
33
0
0
0

