P3
#
3 2 255
235
0
0
0
235
0
0
0
235
235
235
0
235
235
235
0
0
0

