P3
#
3 2 255
255
20
20
20
255
20
20
20
255
255
255
20
255
255
255
20
20
20

