P3
#
7 7 255
249
253
239
252
255
242
250
253
242
253
255
247
215
218
211
235
237
232
232
234
233
243
247
233
250
254
240
221
224
213
165
168
159
195
198
191
245
247
242
249
251
250
246
250
236
231
235
221
125
128
117
196
199
190
222
225
218
242
244
239
240
242
241
246
250
236
230
234
220
242
245
234
193
196
187
146
149
142
155
157
152
229
231
230
237
241
227
229
233
219
149
152
141
231
234
225
185
188
181
189
191
186
241
243
242
197
201
187
232
236
222
204
207
196
136
139
130
190
193
186
249
251
246
254
255
255
176
180
166
254
255
244
211
214
203
223
226
217
231
234
227
229
231
226
186
188
187

