P3
#
10 10 255
0
104
207
0
115
230
0
115
230
0
115
230
0
115
230
0
115
230
0
115
230
0
115
230
0
115
230
0
104
207
0
115
230
0
128
255
3
127
247
89
160
140
84
155
140
43
136
184
51
141
179
8
124
232
0
128
255
0
115
230
0
115
230
0
128
255
94
160
130
229
218
81
227
204
156
230
204
172
230
212
121
158
182
71
0
128
255
0
115
230
20
113
184
158
193
69
196
185
100
112
217
204
194
198
183
209
216
193
82
212
204
201
190
162
138
168
76
8
109
201
0
110
219
94
150
129
153
197
180
102
230
230
235
242
242
61
188
182
189
235
235
102
205
204
110
154
197
0
115
230
0
115
230
69
142
214
217
205
182
224
231
230
82
216
213
212
198
183
92
230
230
74
219
210
171
181
191
0
115
230
0
115
230
54
136
218
255
226
198
230
211
186
242
217
191
224
199
174
212
200
177
250
221
194
156
175
195
0
115
230
0
115
230
5
125
244
224
207
190
255
226
198
255
226
198
247
219
192
255
226
198
255
226
198
77
145
212
0
115
230
0
115
230
0
128
255
105
105
153
245
210
184
255
226
198
255
226
198
255
226
198
156
156
173
0
127
252
0
115
230
0
104
207
0
115
230
84
61
122
214
18
16
204
90
79
204
106
93
204
47
42
115
46
92
0
115
230
0
104
207

