P3
#
3 2 255
1
2
3
7
5
3
1
5
3
9
4
3
7
4
9
2
5
9
