P3
#
2 2 255
10
20
30
70
50
30
10
50
30
90
40
30
