P3
2 2 255
10
20
30
50
100
30
40
50
30
70
30
50

