P3
#
5 1 255
1 2 3 
4 5 6 
7 3 8 
3 7 4
7 3 7
