P3
#
2 3 255
1 2 3
4 3 5
5 2 6
8 4 2
6 8 3
0 2 4